# xmcd
#
# Track frame offsets: 
#        150
#        12532
#        25332
#        37517
#        49832
#        58677
#        70367
#        82250
#        91632
#        100872
#        112097
#        122322
#        133602
#        142747
#        155752
#        167455
#        178027
#        189007
#        200370
#        213160
#        226337
#        239240
#        250585
#        262000
#        273787
#        285125
#        294550
#
# Disc length: 4085 seconds
#
# Revision: 2
# Processed by: cddbd v1.5.2PL0 Copyright (c) Steve Scherf et al.
# Submitted via: ExactAudioCopyFreeDBPlugin 1.0
#
DISCID=710ff31b
DTITLE=Carl Smith - Satisfaction Guaranteed - Disc 1
DYEAR=1996
DGENRE=Country
TTITLE0=The Best Years Of Your Life
TTITLE1=Slowly
TTITLE2=More And More
TTITLE3=I Overlooked An Orchid (While Searching For A Rose)
TTITLE4=Let's Live A Little
TTITLE5=Mr. Moon
TTITLE6=Night Train To Memphis
TTITLE7=Honky Tonk Man
TTITLE8=Hang Your Head In Shame
TTITLE9=I Love You A Thousand Ways
TTITLE10=Sweet Little Miss Blue Eyes
TTITLE11=If Teardrops Were Pennies
TTITLE12=We're Not Going Steady Anymore
TTITLE13=Guess I've Been Around Too Long
TTITLE14=Goodnight Mister Sun
TTITLE15=Walking The Slow Walk
TTITLE16=A Love Was Born
TTITLE17=It's All My Heartache
TTITLE18=Lonely Girl
TTITLE19=I'll Kiss The Past Goodbye
TTITLE20=Be Good To Her
TTITLE21=Ten Thousand Drums
TTITLE22=The Tall, Tall Gentleman
TTITLE23=I'll Walk With You (All The Way)
TTITLE24=Tomorrow Night
TTITLE25=Make The Waterwheel Roll
TTITLE26=Past
EXTD=Disc 5 of 5 - Bear Family - BCD-15849 (1996]\nTitles include year
EXTD=of release
EXTT0=
EXTT1=
EXTT2=
EXTT3=
EXTT4=
EXTT5=
EXTT6=
EXTT7=
EXTT8=
EXTT9=
EXTT10=
EXTT11=
EXTT12=
EXTT13=
EXTT14=
EXTT15=
EXTT16=
EXTT17=
EXTT18=
EXTT19=
EXTT20=
EXTT21=
EXTT22=
EXTT23=
EXTT24=
EXTT25=
EXTT26=
PLAYORDER=
